<?xml version="1.0" standalone="no"?>
<!DOCTYPE svg PUBLIC "-//W3C//DTD SVG 20010904//EN"
 "http://www.w3.org/TR/2001/REC-SVG-20010904/DTD/svg10.dtd">
<svg version="1.0" xmlns="http://www.w3.org/2000/svg"
 width="3500.000000pt" height="4500.000000pt" viewBox="0 0 3500.000000 4500.000000"
 preserveAspectRatio="xMidYMid meet">

<g transform="translate(0.000000,4500.000000) scale(0.100000,-0.100000)"
fill="#000000" stroke="none">
<path d="M19940 41994 c-25 -2 -117 -9 -205 -15 -1499 -102 -3276 -712 -4725
-1622 -927 -582 -1716 -1272 -2316 -2027 -1102 -1386 -1576 -2966 -1398 -4660
91 -870 366 -1820 756 -2613 l88 -179 -25 -97 c-64 -253 -90 -577 -66 -814 26
-247 96 -499 209 -746 l59 -130 -39 -113 c-244 -706 -221 -1615 59 -2353 136
-358 417 -906 654 -1278 301 -472 774 -1036 1229 -1467 l136 -128 38 -98 c130
-333 346 -811 510 -1129 652 -1266 1500 -2330 2469 -3096 l152 -121 71 -146
c39 -81 114 -228 167 -327 l96 -180 60 -300 c171 -855 322 -1877 347 -2355 l6
-105 -69 -75 c-161 -178 -443 -523 -688 -842 l-119 -156 -306 -101 c-324 -107
-601 -210 -764 -281 l-98 -43 -102 26 c-169 44 -280 58 -496 64 -607 16 -1149
-158 -1610 -516 -463 -360 -814 -985 -949 -1693 -40 -208 -53 -350 -58 -623
-7 -380 25 -685 108 -1025 l30 -125 -232 -568 -232 -568 -15 33 c-293 680
-713 1747 -877 2228 -193 570 -293 1091 -311 1628 -9 253 5 387 65 623 137
538 275 1353 321 1903 14 168 14 473 0 561 -52 324 -441 756 -988 1097 l-112
70 0 182 c0 200 12 551 35 1046 25 519 42 754 69 920 107 671 152 1552 105
2069 l-12 126 37 114 c79 245 155 581 191 851 23 167 31 532 15 669 -55 471
-269 822 -578 947 -102 41 -196 57 -342 56 -162 0 -249 -19 -385 -86 -266
-131 -436 -395 -508 -787 -20 -114 -22 -153 -21 -469 1 -422 27 -707 101
-1073 l25 -128 -31 -95 c-61 -183 -104 -419 -138 -754 -26 -263 -26 -970 1
-1200 11 -91 20 -178 19 -195 0 -16 -14 -82 -30 -145 -42 -158 -69 -352 -89
-644 l-7 -100 -67 200 c-112 334 -224 580 -354 778 -54 82 -66 108 -71 155
-47 393 -327 1121 -607 1572 -64 103 -65 105 -77 209 -34 292 -199 947 -319
1271 -195 524 -588 875 -1003 896 -216 11 -392 -51 -538 -190 -257 -247 -328
-737 -191 -1312 95 -399 324 -884 576 -1219 75 -99 77 -103 101 -211 90 -400
263 -883 433 -1210 42 -82 89 -172 103 -200 14 -27 35 -97 47 -155 58 -278
249 -822 431 -1228 l68 -152 -47 -63 c-26 -34 -54 -73 -63 -87 -16 -24 -18
-25 -215 -32 -302 -10 -491 -34 -604 -77 -138 -52 -353 -265 -478 -473 -168
-278 -208 -544 -121 -813 84 -263 332 -631 640 -950 81 -84 109 -121 169 -230
89 -159 255 -411 347 -525 96 -120 234 -255 333 -327 l85 -62 44 -133 c102
-314 204 -550 320 -747 190 -321 431 -574 728 -764 40 -26 79 -57 88 -71 31
-46 127 -280 181 -440 183 -536 351 -1258 594 -2550 317 -1678 575 -2934 800
-3891 74 -313 99 -403 151 -535 250 -643 883 -1374 1674 -1936 66 -47 149
-109 185 -139 77 -65 200 -129 290 -151 90 -23 243 -15 325 16 203 76 375 279
460 540 9 30 39 94 66 141 135 239 255 509 589 1329 120 294 269 654 330 800
356 846 543 1435 760 2400 12 52 57 267 100 478 l79 383 70 92 c39 51 81 105
94 121 l23 28 18 -78 c89 -396 238 -854 365 -1128 l41 -89 -11 -136 c-27 -317
14 -703 106 -1011 19 -64 22 -87 14 -108 -73 -190 -82 -524 -23 -812 15 -69
26 -129 25 -135 0 -5 -16 -55 -35 -110 -58 -168 -71 -266 -70 -535 1 -164 5
-259 16 -315 13 -71 13 -90 0 -185 -12 -78 -16 -197 -16 -465 -1 -371 7 -496
44 -685 33 -169 61 -224 135 -260 l45 -22 3543 -73 c4262 -89 3934 -84 3973
-63 82 44 117 122 159 358 40 219 56 391 62 640 4 195 2 247 -11 305 -37 158
-40 211 -22 365 37 325 39 359 27 510 -13 158 -29 245 -65 366 l-23 79 24 95
c20 76 26 128 30 261 6 176 -2 267 -43 529 -31 199 -30 256 2 366 80 270 92
375 73 609 -24 284 -23 298 58 555 70 221 159 528 227 785 l35 130 0 -106 c1
-58 -8 -186 -19 -285 -86 -780 -87 -1518 -2 -2125 17 -122 17 -131 -4 -385
-84 -982 -90 -1637 -23 -2199 44 -374 160 -847 226 -926 15 -18 45 -40 68 -50
38 -18 92 -19 1060 -19 968 0 1022 1 1060 19 75 34 125 117 185 308 121 388
177 994 167 1813 -7 560 -32 888 -88 1148 -19 89 -20 96 -4 165 106 466 177
958 217 1512 19 273 16 1107 -5 1415 -20 283 -58 667 -88 888 l-20 153 30 237
c94 740 106 1205 42 1647 -95 648 -370 1167 -805 1518 -393 316 -855 505
-1426 582 -243 33 -661 30 -877 -6 -62 -11 -63 -11 -122 25 -148 90 -277 139
-586 220 -269 71 -350 97 -460 151 -163 78 -295 221 -546 590 -165 243 -237
340 -331 447 l-68 77 0 61 c0 98 87 842 151 1285 61 428 145 880 226 1220 33
139 41 161 119 305 45 85 124 239 174 341 l91 186 127 100 c598 471 1156 1057
1644 1728 502 689 936 1482 1313 2400 l86 210 273 275 c302 305 464 483 661
730 351 439 589 818 854 1360 241 494 342 784 405 1162 42 247 51 360 50 638
0 413 -49 728 -165 1071 l-40 117 39 79 c246 490 302 1024 166 1594 l-25 107
50 100 c78 155 191 410 264 592 477 1204 657 2426 521 3540 -154 1268 -708
2452 -1649 3530 -153 175 -571 591 -750 747 -793 691 -1705 1268 -2700 1711
-1091 485 -2203 784 -3265 877 -169 15 -628 27 -720 19z m500 -404 c1170 -72
2433 -422 3645 -1009 850 -412 1607 -911 2290 -1510 160 -140 596 -576 728
-729 605 -695 1016 -1397 1277 -2182 394 -1182 384 -2447 -30 -3805 -97 -319
-308 -880 -325 -863 -2 2 -10 79 -16 171 -27 407 45 1022 199 1682 22 94 43
184 46 200 11 47 -117 -271 -191 -475 -307 -858 -412 -1534 -319 -2073 14 -81
30 -156 35 -166 17 -31 70 -251 88 -362 22 -142 22 -429 0 -564 -18 -102 -64
-284 -77 -298 -3 -4 -12 57 -19 135 -30 356 -71 577 -196 1073 -145 572 -172
758 -162 1114 7 246 23 358 118 836 182 913 237 1399 210 1870 -34 577 -163
1010 -439 1466 -73 122 -307 477 -325 494 -6 6 -4 -1 5 -15 58 -95 244 -450
304 -579 264 -572 333 -1070 243 -1774 -45 -357 -118 -675 -298 -1308 -165
-580 -197 -720 -227 -1000 -22 -208 -15 -566 16 -803 21 -159 22 -174 7 -247
-21 -106 -56 -178 -119 -245 -61 -65 -115 -99 -197 -124 -125 -39 -251 -36
-581 16 -85 13 -234 29 -330 35 -210 13 -600 7 -725 -12 l-90 -14 210 -6 c476
-14 866 -112 1277 -320 528 -268 947 -721 1161 -1255 248 -617 244 -1470 -10
-2154 -76 -204 -301 -672 -446 -930 -232 -411 -502 -784 -856 -1179 -162 -182
-602 -620 -686 -684 -691 -526 -1155 -1018 -1489 -1577 l-57 -95 53 60 c317
358 625 625 1028 890 85 56 172 112 193 124 l37 23 -10 -26 c-71 -186 -384
-814 -558 -1117 -433 -754 -867 -1330 -1437 -1908 -315 -318 -364 -359 -223
-185 529 656 940 1292 1264 1959 96 197 254 546 254 561 0 3 -65 -101 -143
-232 -394 -655 -769 -1178 -1143 -1594 -146 -163 -363 -385 -332 -340 13 19
63 89 110 155 114 160 256 378 362 555 106 177 267 490 252 490 -2 0 -23 -28
-47 -62 -78 -114 -191 -260 -283 -367 -112 -132 -350 -375 -354 -363 -1 5 16
112 38 237 22 125 39 232 38 237 -2 5 -167 -419 -367 -944 -381 -1000 -445
-1152 -658 -1543 -229 -420 -504 -815 -703 -1010 l-71 -70 86 145 c254 429
581 1172 778 1775 99 301 100 313 14 110 -291 -682 -759 -1513 -1081 -1916
-138 -172 -364 -401 -344 -347 4 8 29 46 56 84 87 119 180 281 292 509 96 194
247 551 238 560 -2 2 -34 -49 -72 -113 -240 -409 -559 -807 -781 -974 -128
-97 -120 -95 -420 -94 l-260 1 -50 29 c-79 46 -162 116 -275 233 -207 212
-392 461 -587 787 -46 77 -85 142 -88 145 -3 3 6 -26 21 -65 142 -379 316
-729 499 -1001 35 -53 62 -99 59 -102 -8 -9 -162 149 -271 279 -125 148 -273
354 -386 535 -240 386 -579 1034 -742 1417 -44 102 -81 185 -83 183 -9 -9 207
-626 298 -854 198 -494 470 -1059 626 -1296 32 -50 3 -23 -97 88 -272 301
-545 728 -814 1272 -130 262 -101 189 -676 1697 -106 279 -194 506 -196 505
-1 -2 18 -115 42 -252 25 -138 44 -254 42 -259 -4 -12 -268 270 -388 414 -115
138 -173 215 -251 328 -32 47 -58 82 -58 78 0 -5 33 -77 74 -160 118 -241 307
-552 507 -838 56 -79 117 -165 136 -193 48 -69 -215 200 -372 380 -256 294
-473 582 -734 975 -142 212 -344 536 -446 712 -21 37 -40 66 -42 64 -5 -4 110
-261 210 -471 317 -667 723 -1311 1227 -1945 94 -117 170 -215 170 -218 0 -2
-65 57 -143 132 -642 607 -1226 1380 -1714 2266 -155 282 -473 943 -460 957 7
6 263 -158 394 -253 300 -215 592 -479 847 -764 50 -56 55 -60 35 -25 -44 80
-213 331 -287 429 -302 399 -716 805 -1157 1136 -90 68 -198 166 -350 317
-739 732 -1157 1317 -1553 2168 -196 421 -274 677 -329 1075 -24 176 -24 625
0 800 71 511 228 890 514 1245 221 275 518 508 858 675 396 195 764 284 1220
298 l220 6 -80 13 c-116 19 -530 27 -730 15 -93 -6 -262 -25 -375 -43 -412
-64 -595 -38 -733 104 -62 64 -112 167 -129 265 -10 62 -10 94 5 215 51 404
48 699 -8 1032 -33 194 -68 335 -185 745 -170 596 -233 856 -285 1174 -92 560
-83 1034 26 1446 71 269 252 669 476 1058 14 23 23 42 20 42 -9 0 -306 -457
-373 -574 -283 -496 -410 -1053 -391 -1711 13 -423 59 -761 202 -1485 122
-616 142 -777 132 -1060 -11 -294 -40 -457 -172 -975 -116 -457 -157 -684
-189 -1040 -15 -170 -17 -170 -62 4 -85 331 -72 639 46 1067 57 211 74 339 74
589 0 433 -90 896 -291 1495 -75 224 -242 664 -250 657 -1 -2 17 -89 41 -193
110 -469 168 -825 197 -1214 13 -169 7 -599 -8 -639 -8 -21 -20 4 -90 180
-290 730 -456 1395 -528 2109 -35 346 -31 860 11 1230 183 1624 1078 3111
2614 4341 1504 1205 3576 2053 5381 2204 318 26 503 30 749 15z m-10065
-17500 c189 -27 316 -163 390 -415 47 -161 58 -266 52 -505 -12 -482 -149
-1053 -356 -1484 -50 -104 -90 -191 -88 -193 2 -2 50 18 106 43 56 26 104 45
107 42 12 -13 16 -406 5 -658 -18 -414 -52 -795 -102 -1130 -16 -109 -26 -146
-51 -190 -44 -79 -127 -188 -205 -270 l-67 -72 40 8 c21 3 82 19 134 35 52 15
95 27 96 26 0 -1 -3 -58 -7 -127 -21 -342 -52 -1082 -62 -1505 l-2 -90 -116
-7 c-276 -16 -789 -129 -1039 -230 -82 -32 -83 -32 -255 -3 -87 15 -135 16
-370 9 -148 -5 -418 -9 -600 -9 l-330 0 -66 -26 c-129 -50 -246 -156 -310
-280 -61 -120 -78 -332 -39 -484 53 -209 205 -412 411 -550 210 -141 532 -266
746 -290 l62 -7 79 -107 c104 -139 151 -215 211 -342 112 -235 121 -428 26
-553 -39 -51 -136 -113 -217 -137 -56 -17 -87 -20 -161 -17 -112 6 -166 25
-312 113 -186 112 -298 217 -454 428 -148 200 -333 526 -384 679 -51 149 -107
345 -114 396 -4 27 -9 40 -15 34 -6 -6 -29 -69 -52 -142 l-42 -131 -85 108
c-197 248 -320 467 -349 620 -31 168 81 422 269 612 90 92 113 105 206 120
160 24 792 52 935 40 57 -4 105 -7 107 -6 1 2 -25 45 -58 96 -70 108 -70 116
-7 185 l43 47 194 -31 c106 -17 199 -30 206 -28 7 2 -57 82 -142 178 -153 173
-155 176 -233 335 -145 297 -439 1086 -407 1093 7 1 77 -16 157 -37 79 -22
145 -39 146 -38 1 1 -88 101 -198 222 -221 243 -257 296 -383 558 -121 250
-230 549 -308 845 l-35 131 51 6 c29 3 78 6 110 8 l58 2 -135 118 c-216 189
-364 388 -525 707 -143 282 -217 482 -266 713 -84 398 -45 731 104 870 215
202 614 -7 818 -429 140 -291 332 -1034 373 -1443 5 -57 10 -192 10 -300 l1
-196 26 30 c14 17 50 56 79 87 l53 58 84 -168 c138 -273 238 -514 322 -774 90
-281 119 -509 90 -722 -8 -65 -13 -121 -11 -124 3 -2 41 21 85 52 l80 55 34
-62 c133 -240 205 -422 336 -851 106 -347 136 -417 210 -500 41 -45 116 -76
187 -76 144 0 260 115 314 312 32 119 37 166 70 593 11 139 39 377 46 384 2 2
54 -31 117 -73 62 -42 116 -76 119 -76 3 0 -11 39 -32 88 -85 198 -125 364
-162 677 -18 148 -18 882 0 1060 27 278 72 562 101 638 l10 25 122 -38 c68
-22 124 -38 126 -37 1 2 -38 77 -86 168 l-88 166 -36 179 c-69 346 -96 592
-104 949 -6 297 2 414 43 574 63 254 202 408 394 440 75 12 85 12 165 1z
m8168 -6640 c235 -643 384 -1216 432 -1669 l7 -63 38 148 c153 598 357 793
525 500 l28 -48 27 93 c82 287 209 488 378 597 141 91 280 77 420 -42 146
-125 238 -282 316 -539 l33 -109 30 54 c105 185 234 170 355 -42 58 -101 150
-374 195 -575 9 -37 10 -30 22 75 37 339 146 787 315 1295 88 264 166 479 171
473 2 -2 -6 -57 -16 -122 -70 -434 -179 -1372 -179 -1536 0 -97 -32 -618 -64
-1040 l-5 -65 157 319 158 320 65 -90 c36 -49 99 -138 139 -199 112 -168 202
-291 279 -385 39 -46 67 -88 63 -91 -4 -4 -54 -26 -112 -49 -58 -23 -116 -47
-130 -52 -21 -9 22 -21 265 -78 222 -51 309 -76 370 -105 111 -52 245 -97 485
-160 231 -61 343 -96 413 -132 44 -22 47 -26 35 -42 -7 -10 -58 -79 -114 -152
-56 -74 -124 -168 -152 -210 l-50 -76 211 108 c317 160 481 228 596 247 143
23 595 22 756 -1 331 -49 557 -117 809 -244 585 -292 933 -781 1045 -1469 35
-212 44 -386 38 -687 -7 -329 -23 -514 -92 -1036 -36 -266 -126 -603 -240
-892 -24 -62 -43 -114 -41 -116 5 -5 193 194 264 279 31 36 58 65 59 64 4 -4
41 -428 53 -606 6 -91 13 -318 17 -505 14 -791 -61 -1545 -221 -2242 -30 -130
-54 -194 -195 -532 -88 -212 -159 -386 -158 -387 1 -2 88 76 192 171 105 96
193 175 196 175 7 0 11 -40 31 -270 20 -230 17 -1231 -5 -1480 -30 -340 -69
-592 -118 -757 l-22 -73 -292 0 -292 0 -16 68 c-23 94 -74 191 -116 219 -66
45 -148 25 -201 -49 -29 -40 -80 -179 -80 -219 0 -18 -10 -19 -343 -19 l-344
0 -26 108 c-141 572 -174 1209 -112 2172 9 135 19 262 23 283 l7 39 174 -182
c95 -99 175 -179 177 -177 2 2 -70 197 -160 433 -155 407 -164 435 -180 549
-83 612 -82 1235 3 2060 11 105 24 278 30 386 14 262 40 396 97 511 56 111
139 163 249 156 l61 -4 -76 91 c-204 243 -326 515 -342 762 l-3 42 -117 -78
c-179 -119 -316 -241 -457 -406 -262 -307 -400 -538 -511 -860 -39 -115 -116
-403 -108 -410 2 -2 27 38 55 89 68 121 175 282 250 376 73 92 174 202 180
196 15 -15 -213 -861 -349 -1291 -73 -232 -157 -364 -363 -571 -121 -121 -200
-187 -378 -318 -65 -47 -116 -86 -113 -86 16 0 244 77 346 117 113 45 326 148
407 198 l41 25 7 -65 c10 -88 -9 -232 -45 -349 -16 -54 -37 -134 -46 -179 -36
-191 -257 -560 -493 -826 -85 -95 -79 -97 69 -18 120 64 272 157 375 230 l80
57 8 -32 c4 -18 10 -107 13 -198 5 -127 2 -181 -9 -235 -44 -201 -151 -386
-392 -679 -55 -67 -106 -129 -114 -139 -22 -28 309 134 472 231 32 19 60 32
62 30 2 -2 9 -64 15 -138 10 -112 9 -157 -4 -264 -13 -116 -19 -139 -59 -220
-86 -179 -204 -348 -385 -556 -55 -63 -99 -116 -97 -118 8 -8 317 152 421 218
l109 68 13 -36 c18 -51 16 -291 -3 -500 -15 -164 -41 -352 -50 -360 -5 -6
-1217 16 -1343 24 l-94 6 109 60 c59 33 146 87 193 119 87 59 194 148 187 155
-14 14 -409 -165 -607 -276 l-106 -59 -1944 40 -1945 40 -170 84 c-172 84
-403 181 -411 172 -8 -7 141 -124 241 -190 l90 -59 -370 8 c-203 3 -489 9
-635 13 l-264 6 -7 40 c-21 125 -41 715 -24 715 3 0 35 -19 72 -43 139 -89
458 -255 469 -245 1 2 -32 41 -73 88 -245 276 -414 540 -450 703 -19 82 -24
453 -7 520 l9 38 65 -48 c95 -69 261 -172 373 -233 l99 -53 -87 118 c-108 144
-196 287 -273 442 -66 131 -92 205 -122 338 -25 112 -47 365 -34 388 8 14 23
7 107 -52 156 -110 471 -291 484 -277 3 3 -14 27 -38 53 -74 79 -203 246 -274
353 -213 324 -316 643 -341 1058 l-7 114 99 -65 c206 -134 383 -228 564 -300
170 -67 173 -66 70 13 -185 143 -473 452 -608 652 -145 216 -289 550 -404 938
-39 134 -137 524 -132 529 7 8 148 -116 227 -199 93 -99 178 -214 243 -327 24
-43 44 -70 44 -61 0 33 -60 250 -93 335 -150 388 -515 905 -840 1191 -110 97
-127 106 -127 68 0 -37 -48 -182 -83 -251 -138 -276 -423 -500 -709 -559 -82
-17 -287 -21 -371 -7 -42 7 -47 6 -42 -8 4 -9 17 -56 30 -106 155 -580 29
-1266 -423 -2320 -49 -115 -109 -250 -132 -300 l-42 -90 -29 114 c-54 209
-126 377 -210 491 -30 40 -40 48 -36 30 12 -54 37 -210 49 -310 17 -141 18
-791 0 -960 -63 -612 -168 -1145 -347 -1765 -35 -121 -73 -247 -84 -279 -12
-33 -20 -60 -18 -62 5 -5 104 150 169 266 228 401 494 989 1040 2295 281 673
521 1236 525 1232 8 -9 -144 -552 -226 -807 -120 -376 -181 -538 -379 -1010
-77 -184 -231 -558 -342 -830 -366 -897 -472 -1135 -602 -1351 -25 -40 -53
-101 -62 -134 -41 -142 -133 -282 -210 -319 -77 -37 -171 -7 -271 87 -35 31
-158 187 -290 365 -126 171 -231 310 -231 309 -1 -1 11 -69 27 -152 15 -82 28
-156 29 -163 1 -32 -385 320 -572 522 -356 385 -591 747 -706 1091 -50 150
-228 923 -396 1725 -154 734 -308 1513 -491 2485 -210 1113 -343 1723 -496
2267 -57 202 -161 516 -214 644 -20 47 -35 87 -33 89 2 1 69 18 151 39 81 21
171 45 200 55 l52 18 -45 12 c-496 130 -718 247 -986 522 -160 165 -280 340
-383 562 -39 84 -111 258 -111 269 0 2 62 3 138 3 159 1 243 20 377 85 160 78
279 192 349 335 50 100 67 174 73 305 5 101 9 122 35 173 69 138 181 297 289
411 l58 61 1 -46 c0 -109 58 -318 118 -434 l26 -50 7 75 c18 214 101 429 232
602 84 112 177 192 343 295 16 9 10 11 -32 6 -70 -7 -264 13 -359 38 -239 62
-406 191 -451 348 -18 61 -21 174 -6 239 6 24 9 42 7 40 -1 -2 -30 -44 -64
-94 -155 -233 -335 -371 -556 -426 -124 -30 -327 -30 -471 0 -220 47 -465 155
-590 260 -180 150 -253 340 -184 477 46 91 37 89 475 94 801 8 780 8 885 -18
52 -13 113 -24 135 -24 23 0 90 19 160 46 384 146 946 257 1155 227 79 -11
126 -35 295 -146 221 -146 463 -358 592 -519 86 -108 130 -199 144 -300 42
-304 -143 -1586 -332 -2305 -80 -304 -131 -435 -269 -691 -50 -92 -90 -170
-90 -174 0 -3 65 43 144 104 l144 110 6 -72 c3 -40 10 -139 16 -222 25 -352
110 -813 215 -1170 200 -680 929 -2507 1305 -3270 371 -753 634 -1421 721
-1835 l29 -135 -5 160 c-5 182 -36 407 -95 702 -75 371 -210 899 -319 1248
l-48 153 262 641 c145 352 266 648 269 658 6 14 18 6 69 -44 95 -92 289 -265
293 -260 2 2 -16 55 -40 118 -53 139 -186 549 -221 679 -38 142 -72 315 -97
500 -29 217 -32 662 -5 865 108 815 467 1444 1017 1786 248 153 549 257 869
299 126 17 397 14 524 -5 215 -32 455 -125 860 -333 l177 -90 -66 96 c-37 54
-109 152 -161 220 -51 68 -93 127 -93 131 0 12 336 134 710 259 268 89 405
128 615 177 268 62 270 62 235 77 -19 8 -90 36 -157 63 -68 27 -123 53 -123
58 0 17 433 560 547 685 l48 54 154 -316 c85 -174 155 -315 157 -314 1 2 -2
53 -6 113 -5 61 -20 286 -34 500 -39 585 -45 669 -72 925 -30 289 -73 616
-124 945 -21 138 -42 270 -46 295 -4 25 -4 43 -1 40 2 -3 39 -97 80 -210z
m7331 -13975 l37 -70 -82 -3 c-45 -2 -84 0 -87 3 -7 7 37 101 62 132 22 29 23
28 70 -62z"/>
<path d="M20364 40945 c-8 -21 4 -35 31 -35 28 0 65 -43 65 -76 0 -37 -64
-100 -124 -123 -140 -52 -339 -70 -409 -36 -77 36 -93 109 -36 157 l33 28 -32
0 c-90 0 -141 -110 -96 -206 22 -46 86 -99 143 -119 202 -69 534 31 606 181
21 44 21 123 1 162 -28 54 -72 82 -127 82 -34 0 -51 -5 -55 -15z"/>
<path d="M22130 40611 c-48 -10 -72 -24 -108 -65 -36 -41 -56 -105 -47 -146
10 -46 60 -116 107 -148 97 -67 430 -220 538 -248 169 -43 322 32 322 159 0
49 -22 101 -47 111 -13 4 -14 2 -5 -14 20 -37 12 -90 -18 -120 -65 -65 -152
-50 -371 62 -86 44 -201 100 -255 124 -55 24 -110 53 -123 65 -34 33 -31 78
10 116 42 40 84 53 176 54 l76 0 -43 20 c-36 15 -154 42 -172 38 -3 -1 -21 -4
-40 -8z"/>
<path d="M18764 40210 c-17 -6 -39 -20 -50 -32 -19 -21 -19 -21 1 -13 32 15
90 10 118 -8 15 -10 31 -34 38 -57 37 -124 -103 -250 -351 -315 -119 -31 -370
-75 -428 -75 -150 0 -177 114 -61 261 16 20 29 40 29 44 0 16 -86 -44 -125
-87 -98 -109 -78 -245 45 -312 74 -40 185 -45 379 -17 244 37 400 101 511 211
78 77 95 116 95 216 0 73 -3 84 -28 117 -16 21 -38 44 -50 51 -30 20 -86 27
-123 16z"/>
<path d="M16521 40184 c-35 -29 -42 -51 -12 -34 33 17 89 12 112 -11 120 -120
-397 -481 -601 -420 -53 16 -79 63 -63 115 9 29 8 34 -4 29 -43 -17 -57 -125
-23 -181 62 -102 292 -111 474 -20 195 98 324 245 334 381 8 106 -40 167 -133
167 -43 0 -60 -5 -84 -26z"/>
<path d="M23780 39659 c-153 -69 -226 -263 -175 -464 36 -142 159 -338 305
-484 261 -263 580 -406 830 -373 147 20 248 92 263 189 17 106 -67 259 -211
388 l-44 39 50 -94 c97 -182 116 -291 59 -334 -25 -18 -42 -21 -140 -21 -98 0
-122 4 -189 28 -334 123 -737 531 -788 795 -10 52 -1 134 19 170 16 29 85 90
114 101 37 14 103 14 130 0 12 -6 34 -23 50 -37 31 -29 34 -24 12 18 -45 87
-183 125 -285 79z"/>
<path d="M19380 38976 c-172 -48 -363 -201 -474 -379 -89 -143 -128 -304 -107
-444 29 -198 155 -316 389 -365 83 -17 122 -19 272 -15 205 7 268 19 514 102
233 79 276 85 536 78 248 -6 305 3 424 65 87 45 190 146 229 222 30 61 57 171
57 237 1 238 -163 475 -346 499 l-39 5 40 -22 c107 -58 179 -150 217 -272 31
-102 23 -228 -19 -319 -38 -81 -95 -145 -164 -182 -107 -59 -191 -66 -486 -44
-203 15 -275 4 -530 -81 -222 -74 -304 -92 -468 -98 -217 -9 -339 21 -413 101
-54 58 -67 102 -66 216 1 116 31 215 100 338 85 148 250 301 382 353 56 21 24
25 -48 5z"/>
<path d="M22458 38807 c74 -78 27 -188 -99 -232 -81 -29 -156 -13 -224 47 -42
37 -59 69 -83 158 l-9 35 -21 -45 c-54 -114 5 -262 132 -327 44 -23 63 -27
136 -27 93 0 143 17 212 74 99 82 107 265 14 321 -17 10 -42 19 -55 19 l-24 0
21 -23z"/>
<path d="M16220 38644 c0 -3 21 -29 46 -58 99 -108 107 -154 47 -254 -91 -149
-228 -267 -414 -357 -261 -125 -498 -141 -578 -39 -39 50 -50 142 -25 209 15
40 -24 -5 -51 -58 -29 -59 -32 -121 -10 -188 61 -177 282 -240 581 -164 115
29 276 104 360 168 219 166 354 434 288 573 -23 48 -94 108 -170 144 -67 32
-74 34 -74 24z"/>
<path d="M17525 38532 c-33 -50 -44 -132 -26 -197 28 -105 138 -185 256 -185
115 0 197 47 241 136 31 63 37 151 14 194 -13 24 -13 24 -37 -30 -44 -100
-113 -150 -205 -150 -108 0 -180 73 -202 201 l-12 74 -29 -43z"/>
<path d="M26180 38504 c-45 -19 -68 -41 -90 -84 -61 -120 -15 -287 95 -344 51
-27 128 -27 172 -1 55 33 89 122 67 180 -5 13 -10 10 -25 -15 -10 -16 -35 -38
-54 -47 -33 -16 -37 -16 -70 0 -40 19 -72 75 -81 139 -5 39 8 96 41 171 9 21
-7 22 -55 1z"/>
<path d="M14070 38343 c0 -124 -117 -246 -203 -214 -33 13 -67 66 -67 105 0
25 -2 27 -16 15 -48 -40 -59 -134 -21 -189 37 -55 70 -74 140 -78 73 -5 122
15 176 69 54 54 75 105 76 186 0 65 -3 74 -31 109 -44 55 -54 54 -54 -3z"/>
<path d="M23905 37931 c89 -42 149 -142 149 -251 0 -142 -70 -221 -379 -426
-115 -76 -253 -160 -305 -186 -349 -172 -673 -130 -789 103 -52 105 -51 222 4
332 l25 48 -28 -20 c-65 -46 -111 -143 -119 -251 -18 -236 140 -428 401 -485
61 -14 106 -16 200 -12 243 11 418 88 735 327 190 143 275 230 328 336 36 73
38 84 38 169 0 81 -4 97 -33 159 -52 111 -135 176 -224 176 l-43 0 40 -19z"/>
<path d="M25185 37449 c-45 -13 -105 -67 -126 -113 -12 -27 -19 -64 -19 -111
0 -127 68 -226 228 -332 104 -69 194 -103 292 -110 174 -13 321 84 352 230 15
68 4 120 -33 160 l-29 32 6 -28 c24 -107 -82 -211 -216 -212 -77 0 -129 18
-255 89 -194 108 -253 212 -185 324 11 18 36 40 55 49 57 27 4 44 -70 22z"/>
<path d="M17240 37004 c-121 -52 -189 -215 -156 -373 36 -173 174 -307 354
-341 70 -14 238 -9 320 10 65 15 140 64 167 110 28 49 28 157 -1 196 -30 41
-40 39 -36 -5 5 -47 -21 -106 -56 -129 -20 -13 -46 -16 -126 -14 -205 5 -312
38 -392 124 -67 71 -88 126 -88 223 0 93 25 154 74 184 52 31 5 43 -60 15z"/>
<path d="M21350 36783 c0 -5 19 -14 43 -20 141 -38 250 -190 233 -327 -23
-193 -223 -324 -561 -365 -318 -39 -546 24 -619 171 -45 90 -27 183 49 245
l38 32 -37 -9 c-50 -11 -100 -52 -133 -108 -24 -40 -28 -58 -28 -122 0 -60 5
-86 27 -133 56 -118 191 -215 355 -254 62 -14 117 -18 263 -17 166 1 195 4
285 27 223 59 388 175 463 325 36 73 37 80 37 181 0 94 -3 112 -27 163 -35 75
-104 148 -174 183 -43 22 -74 29 -135 33 -45 3 -79 1 -79 -5z"/>
<path d="M15475 36706 c-41 -17 -89 -74 -110 -130 -26 -68 -18 -198 17 -257
74 -126 207 -198 365 -199 92 0 155 17 221 60 99 63 135 164 93 257 -27 59
-90 91 -69 35 15 -38 3 -78 -31 -112 -53 -53 -170 -65 -286 -29 -160 49 -246
220 -178 352 18 36 15 38 -22 23z"/>
<path d="M23386 35603 c48 -70 16 -150 -78 -197 -65 -33 -151 -35 -206 -7 -76
40 -132 122 -132 196 0 42 -12 39 -37 -8 -10 -20 -16 -55 -16 -93 1 -109 57
-194 161 -242 48 -21 64 -24 140 -20 98 5 149 25 207 83 52 53 69 92 69 160 0
97 -47 165 -113 165 -20 0 -19 -2 5 -37z"/>
<path d="M16551 35443 c-78 -39 -115 -166 -73 -250 40 -78 115 -123 207 -123
123 0 218 77 240 192 11 58 -1 62 -53 19 -80 -68 -147 -86 -216 -57 -76 32
-99 117 -51 188 14 20 25 39 25 42 0 12 -46 5 -79 -11z"/>
<path d="M19276 35330 c-45 -54 -57 -131 -32 -213 33 -111 136 -183 261 -181
80 1 125 17 179 64 57 50 80 103 80 180 0 36 -6 76 -13 89 l-13 24 -13 -35
c-18 -53 -53 -106 -88 -132 -145 -108 -329 -3 -329 189 0 25 -1 45 -3 45 -2 0
-15 -14 -29 -30z"/>
<path d="M20958 34227 c-42 -34 -61 -90 -62 -183 0 -99 27 -161 92 -211 81
-62 198 -69 304 -19 109 52 169 133 176 242 5 75 -26 157 -68 179 l-27 14 14
-44 c32 -96 -36 -211 -151 -254 -74 -27 -124 -27 -167 2 -69 45 -111 195 -76
266 19 38 4 41 -35 8z"/>
<path d="M18186 32093 c-3 -4 79 -28 184 -55 249 -62 415 -110 745 -215 542
-171 727 -208 1045 -208 335 0 490 31 1071 215 283 90 457 140 710 204 115 30
205 56 202 60 -12 12 -330 6 -489 -9 -208 -20 -334 -41 -714 -119 -463 -95
-507 -100 -770 -100 -269 0 -329 8 -800 104 -351 72 -544 103 -745 120 -137
11 -428 13 -439 3z"/>
<path d="M17091 31490 c-164 -14 -315 -39 -460 -76 -74 -19 -136 -35 -137 -37
-1 -1 122 -2 274 -3 294 0 447 -13 717 -59 363 -63 621 -133 1355 -370 944
-304 1106 -344 1380 -332 230 10 405 55 1157 297 795 256 1110 342 1473 404
287 49 419 60 707 61 271 0 272 0 222 17 -74 25 -256 64 -394 85 -169 25 -640
25 -845 0 -452 -55 -764 -123 -1464 -317 -621 -172 -790 -207 -961 -197 -156
9 -317 46 -841 192 -700 196 -1133 287 -1534 325 -160 15 -525 20 -649 10z"/>
<path d="M16920 30237 c3 -3 52 -22 110 -42 458 -159 797 -336 1080 -563 126
-101 366 -342 466 -467 236 -296 356 -499 589 -998 48 -103 90 -186 92 -183 8
7 -46 269 -82 401 -112 407 -358 838 -660 1154 -327 343 -787 580 -1290 666
-141 24 -314 42 -305 32z"/>
<path d="M23290 30233 c-789 -79 -1438 -492 -1845 -1174 -144 -242 -268 -557
-333 -849 -32 -140 -48 -239 -39 -230 3 3 35 73 72 155 146 327 314 636 445
821 253 357 545 644 860 846 245 157 434 244 895 411 l70 26 -45 -1 c-25 -1
-61 -3 -80 -5z"/>
<path d="M14979 29460 c-858 -57 -1558 -339 -1827 -737 -38 -56 -82 -143 -82
-162 0 -4 33 25 73 64 93 91 171 144 321 216 438 209 1243 344 1951 326 567
-15 1044 -107 1515 -294 444 -176 847 -421 1235 -751 55 -47 183 -169 284
-271 127 -128 176 -172 156 -141 -66 106 -170 253 -251 355 -111 140 -406 435
-549 549 -582 464 -1285 747 -2066 831 -173 18 -586 27 -760 15z"/>
<path d="M24810 29464 c-346 -20 -710 -83 -1007 -175 -821 -251 -1538 -774
-1999 -1454 -113 -168 -106 -165 113 53 120 120 273 262 339 316 667 541 1387
839 2279 943 187 21 736 24 955 5 323 -29 658 -84 934 -153 364 -91 631 -226
786 -396 57 -62 60 -53 13 42 -64 128 -183 254 -344 365 -328 225 -792 375
-1349 435 -140 15 -586 27 -720 19z"/>
<path d="M15015 28903 c-250 -13 -557 -53 -833 -109 -778 -156 -1023 -323
-1098 -744 -22 -127 -20 -367 6 -514 22 -131 81 -318 130 -417 29 -57 137
-229 144 -229 2 0 -16 57 -40 128 -59 176 -74 254 -81 427 -4 127 -2 165 15
248 23 111 65 207 123 285 36 47 113 111 123 101 2 -2 -2 -51 -10 -109 -18
-140 -18 -393 2 -560 100 -881 569 -1699 1342 -2344 639 -533 1341 -827 2142
-897 143 -12 614 -6 725 10 33 4 62 7 63 5 8 -6 -222 -74 -332 -99 -458 -102
-963 -110 -1421 -20 -66 12 -122 22 -123 20 -5 -5 223 -78 338 -109 607 -164
1292 -164 1862 0 231 66 498 182 677 293 65 40 86 49 93 39 23 -34 -12 -237
-72 -421 l-39 -122 30 35 c58 69 159 227 203 320 129 272 184 539 193 931 8
348 -20 617 -103 1007 -198 925 -686 1659 -1434 2157 -544 362 -1215 603
-1868 670 -130 13 -621 25 -757 18z m530 -608 c333 -54 616 -218 715 -415 130
-258 -45 -510 -423 -609 -483 -126 -1103 75 -1261 409 -28 58 -31 75 -31 155
0 119 27 178 125 268 102 94 248 160 423 192 99 18 342 18 452 0z m1490 -494
c58 -26 110 -88 125 -149 23 -98 -34 -208 -128 -248 -56 -24 -149 -15 -200 19
-97 64 -127 195 -67 292 56 91 176 129 270 86z m-2372 -1728 c479 -490 1036
-865 1693 -1138 183 -76 543 -200 819 -280 l190 -56 -150 5 c-243 9 -521 56
-800 137 -906 262 -1678 873 -2092 1655 -29 55 -53 104 -53 108 0 3 55 -58
122 -136 68 -79 189 -211 271 -295z m4161 -820 c18 -109 -2 -235 -51 -325 -31
-57 -113 -138 -171 -167 -99 -50 -231 -64 -351 -36 -103 25 -103 29 6 59 306
87 403 166 508 416 21 49 41 90 45 90 4 0 10 -17 14 -37z"/>
<path d="M24745 28899 c-995 -47 -2056 -526 -2671 -1206 -503 -557 -786 -1213
-898 -2078 -83 -640 -2 -1218 224 -1605 43 -74 159 -234 165 -228 2 2 -13 58
-34 123 -21 66 -46 162 -55 214 -16 95 -21 201 -10 201 3 0 43 -22 88 -48 315
-188 639 -307 1006 -371 219 -38 320 -46 595 -46 354 1 608 33 925 116 142 38
333 99 327 105 -2 3 -54 -4 -114 -15 -227 -41 -379 -54 -638 -54 -278 0 -434
15 -675 63 -147 29 -389 95 -403 109 -4 4 23 3 60 -2 104 -15 689 -14 813 1
478 59 855 171 1260 374 804 402 1505 1118 1853 1892 238 528 337 1137 261
1599 -10 55 9 48 87 -31 74 -76 117 -155 151 -279 18 -65 21 -106 21 -243 1
-187 -17 -294 -77 -466 -19 -55 -38 -108 -42 -119 -15 -45 80 98 130 195 107
208 154 397 163 656 11 326 -52 541 -201 689 -146 144 -424 251 -911 349 -473
95 -906 128 -1400 105z m222 -675 c65 -38 97 -92 101 -173 5 -85 -23 -142 -91
-188 -87 -59 -184 -53 -259 15 -101 91 -103 227 -6 320 69 65 171 76 255 26z
m-1009 -278 c144 -40 252 -120 300 -224 37 -80 37 -197 -1 -296 -140 -361
-654 -670 -1117 -668 -190 0 -331 47 -426 141 -72 70 -99 137 -99 241 0 159
60 277 224 441 200 199 440 320 741 375 92 16 303 11 378 -10z m2031 -1576
c-458 -893 -1462 -1571 -2549 -1720 -149 -20 -318 -35 -310 -27 3 3 93 34 200
70 751 250 1249 497 1745 866 327 244 626 529 906 864 41 48 75 87 77 87 2 0
-29 -63 -69 -140z m-4404 -1216 c112 -231 177 -279 503 -374 40 -12 70 -25 67
-30 -12 -20 -158 -43 -239 -37 -249 16 -416 191 -416 437 0 71 8 140 16 140 2
0 33 -61 69 -136z"/>
<path d="M12811 27345 c-2 -26 43 -303 65 -405 161 -749 658 -1574 1360 -2261
218 -212 417 -377 634 -524 l115 -78 -210 214 c-287 292 -437 461 -687 769
-384 475 -698 954 -926 1410 -124 247 -166 348 -273 660 -43 124 -78 221 -78
215z"/>
<path d="M27481 27262 c-97 -281 -181 -482 -303 -727 -347 -695 -863 -1409
-1567 -2169 -86 -93 -178 -194 -206 -225 l-50 -55 76 52 c381 262 873 750
1208 1197 426 569 700 1132 820 1685 31 141 56 298 49 305 -2 2 -14 -26 -27
-63z"/>
<path d="M18973 23353 c-51 -71 -178 -235 -283 -367 -105 -131 -189 -241 -186
-244 8 -8 147 83 208 136 122 107 248 272 303 396 27 62 58 171 53 192 -2 8
-45 -43 -95 -113z"/>
<path d="M21260 23461 c0 -71 63 -227 133 -331 60 -90 167 -209 240 -267 72
-58 184 -129 192 -121 2 2 -91 122 -207 268 -116 146 -240 308 -276 360 -81
119 -82 119 -82 91z"/>
<path d="M19246 23319 c-49 -113 -143 -270 -262 -434 -353 -488 -459 -720
-487 -1064 -4 -52 -1 -47 93 145 111 229 162 316 369 628 157 238 233 379 275
512 25 80 52 242 44 265 -2 7 -17 -17 -32 -52z"/>
<path d="M21050 23343 c0 -63 29 -198 60 -285 46 -125 117 -251 298 -527 197
-299 247 -385 348 -598 67 -144 74 -154 74 -117 0 140 -74 396 -169 582 -68
132 -124 219 -286 442 -138 190 -201 289 -271 433 -52 105 -54 108 -54 70z"/>
<path d="M19649 22911 c-110 -46 -315 -169 -374 -222 -31 -29 -65 -73 -81
-105 -36 -73 -32 -170 9 -232 51 -79 167 -119 264 -93 63 17 159 87 219 159
102 124 205 367 190 448 -15 78 -107 96 -227 45z"/>
<path d="M20493 22928 c-55 -27 -55 -117 1 -255 74 -181 186 -323 306 -388 47
-26 66 -30 131 -30 67 0 81 4 124 30 70 43 108 117 103 200 -8 126 -81 209
-288 326 -211 119 -309 150 -377 117z"/>
<path d="M18740 20793 c-222 -75 -347 -383 -242 -596 17 -35 40 -71 50 -81 19
-16 20 -14 26 66 19 218 69 369 186 568 17 29 30 54 28 55 -2 2 -23 -4 -48
-12z"/>
<path d="M21540 20803 c0 -3 22 -45 49 -93 90 -158 129 -271 151 -432 7 -46
15 -105 19 -133 l7 -50 36 55 c39 57 68 148 68 211 0 160 -104 345 -231 409
-48 25 -99 42 -99 33z"/>
<path d="M18893 20668 c-80 -88 -102 -315 -45 -449 l20 -44 7 50 c14 94 50
155 90 155 12 0 44 -11 71 -25 111 -57 174 -65 314 -40 113 21 250 21 326 1
34 -9 106 -34 160 -57 123 -51 204 -69 319 -69 118 0 199 19 328 73 57 25 131
51 163 58 82 17 222 14 329 -6 115 -22 173 -16 279 30 47 20 93 35 103 33 28
-5 60 -63 74 -135 l12 -68 18 40 c45 102 44 256 -1 377 -18 48 -64 109 -73 97
-2 -2 -11 -25 -21 -51 -23 -63 -105 -138 -176 -161 -103 -33 -171 -23 -415 64
-97 34 -134 42 -190 43 -79 0 -109 -9 -250 -72 -163 -72 -195 -70 -440 34 -81
34 -99 38 -175 37 -75 0 -99 -5 -200 -42 -192 -71 -238 -83 -310 -78 -37 2
-88 14 -117 27 -64 27 -137 103 -154 159 -7 22 -15 41 -19 41 -4 0 -16 -10
-27 -22z"/>
<path d="M19286 19840 c59 -111 158 -182 301 -216 98 -24 1041 -24 1149 -1
128 28 228 95 293 196 40 62 39 78 -1 48 -86 -65 -213 -107 -323 -107 -33 0
-139 11 -235 25 -229 32 -374 32 -610 0 -100 -14 -207 -25 -238 -25 -106 0
-220 39 -331 112 l-35 22 30 -54z"/>
<path d="M19994 19191 c-83 -28 -199 -98 -243 -145 l-24 -26 29 0 c16 0 94 11
173 25 183 32 284 32 474 0 83 -15 162 -25 176 -23 24 3 22 6 -34 51 -180 142
-367 182 -551 118z"/>
<path d="M19276 15940 c-10 -102 9 -516 34 -730 55 -480 170 -920 315 -1211
228 -454 577 -573 861 -294 262 257 445 793 529 1550 20 179 39 630 30 702
l-8 58 -34 -135 c-285 -1135 -421 -1537 -621 -1836 -103 -153 -176 -205 -259
-182 -50 13 -145 111 -202 206 -192 326 -308 662 -540 1562 l-98 385 -7 -75z"/>
<path d="M18560 14292 c-97 -144 -251 -341 -326 -418 -205 -207 -393 -304
-789 -404 l-190 -48 75 -36 c398 -190 896 -48 1138 323 65 99 115 217 136 323
16 79 23 328 9 328 -5 0 -28 -31 -53 -68z"/>
<path d="M21696 14344 c-20 -51 -29 -209 -17 -300 38 -313 216 -564 496 -699
127 -62 188 -76 351 -82 157 -6 247 8 358 54 66 27 166 88 166 101 0 4 -51 13
-113 20 -309 32 -561 119 -739 252 -143 108 -281 287 -423 548 -37 67 -68 122
-70 122 -2 0 -6 -7 -9 -16z"/>
<path d="M9426 14099 c-3 -17 -6 -71 -6 -119 0 -325 231 -629 560 -740 79 -26
260 -38 336 -22 62 13 164 51 164 60 0 4 -53 24 -117 45 -244 77 -417 180
-579 341 -109 110 -192 217 -286 369 -33 53 -61 97 -63 97 -1 0 -5 -14 -9 -31z"/>
<path d="M14342 13364 c-188 -168 -388 -474 -503 -767 -202 -520 -245 -1197
-110 -1752 29 -119 94 -322 107 -334 4 -3 4 17 0 44 -3 28 -9 199 -12 380 -11
558 28 960 136 1400 84 343 228 704 386 972 53 90 66 113 62 113 -2 0 -31 -26
-66 -56z"/>
<path d="M25910 13418 c0 -3 23 -43 51 -89 78 -127 209 -399 267 -551 124
-328 202 -674 248 -1108 21 -201 29 -719 15 -959 -6 -107 -10 -196 -8 -198 8
-7 86 244 111 357 98 445 98 914 0 1360 -99 448 -335 882 -613 1129 -39 35
-71 61 -71 59z"/>
<path d="M10523 12776 c-27 -24 -62 -68 -78 -98 -27 -48 -30 -62 -30 -143 0
-105 16 -161 225 -832 112 -357 185 -585 463 -1445 28 -87 52 -156 54 -154 2
2 -62 260 -142 575 -454 1783 -437 1712 -442 1861 -3 74 -1 168 4 208 5 39 6
72 2 72 -4 0 -29 -20 -56 -44z"/>
<path d="M9941 12428 c134 -172 159 -235 428 -1045 131 -397 256 -777 277
-843 20 -66 39 -118 41 -116 7 7 -274 1160 -381 1561 -88 330 -131 423 -224
485 -53 35 -129 60 -183 60 l-38 0 80 -102z"/>
<path d="M15534 12364 c24 -62 100 -346 122 -458 19 -96 27 -176 31 -298 6
-183 -4 -291 -43 -482 -14 -65 -23 -120 -21 -122 2 -3 34 27 70 65 284 301
257 887 -56 1218 -29 30 -65 65 -81 76 -28 20 -29 20 -22 1z"/>
<path d="M24713 12318 c-302 -288 -376 -822 -160 -1156 43 -66 135 -167 144
-158 3 3 -4 44 -15 93 -71 303 -70 610 3 912 22 90 38 148 96 344 4 15 5 27 2
27 -2 0 -34 -28 -70 -62z"/>
<path d="M19542 12142 c-9 -6 4 -20 45 -47 120 -78 330 -315 544 -613 l66 -92
49 52 c26 29 143 152 258 274 273 285 390 413 384 419 -10 10 -186 -48 -278
-91 -106 -50 -259 -150 -335 -217 l-50 -45 -90 87 c-98 95 -212 177 -309 222
-97 45 -249 72 -284 51z"/>
<path d="M20197 9963 c-36 -247 -63 -475 -97 -813 -74 -743 -88 -823 -181
-1000 -31 -59 -106 -169 -193 -282 -155 -202 -213 -288 -193 -288 25 0 223
102 306 157 104 70 209 167 268 251 l45 63 72 -74 c77 -79 187 -161 281 -210
100 -51 400 -185 404 -181 7 7 -69 82 -241 240 -316 291 -412 466 -388 714 13
128 12 692 0 865 -17 232 -60 578 -73 591 -2 3 -7 -12 -10 -33z"/>
<path d="M10804 7760 c14 -76 114 -556 157 -750 158 -713 337 -1297 492 -1605
138 -275 370 -565 699 -873 236 -221 378 -299 523 -290 210 14 344 198 445
608 16 68 28 125 26 127 -2 2 -23 -13 -47 -33 -66 -56 -174 -123 -238 -149
-244 -100 -439 -17 -792 335 -222 221 -319 356 -485 675 -180 345 -432 969
-682 1690 -97 281 -104 299 -98 265z"/>
<path d="M18110 7070 c38 -31 158 -87 225 -105 72 -20 284 -30 340 -17 l40 9
-60 27 c-135 61 -341 106 -484 106 l-86 0 25 -20z"/>
<path d="M21949 7075 c-122 -20 -301 -77 -345 -109 -17 -13 -14 -15 29 -21 70
-11 252 0 322 19 70 20 167 63 222 100 l38 26 -95 -1 c-52 -1 -129 -7 -171
-14z"/>
<path d="M20145 6630 c29 -175 38 -297 39 -515 1 -237 0 -241 -27 -320 -36
-105 -89 -186 -183 -275 -52 -49 -69 -70 -53 -65 51 14 166 75 206 110 l42 36
-6 -308 c-6 -319 4 -559 33 -768 16 -111 72 -396 80 -404 2 -3 1 29 -3 70 -10
95 -9 709 1 772 l7 48 61 -55 c51 -46 204 -136 232 -136 5 0 -32 42 -81 93
-122 129 -179 241 -185 372 -1 22 4 117 11 212 26 323 3 652 -60 867 -25 86
-84 242 -105 276 l-15 25 6 -35z"/>
<path d="M17870 5790 c121 -104 429 -205 605 -198 l80 3 -80 39 c-145 70 -530
187 -615 186 -25 -1 -24 -1 10 -30z"/>
<path d="M22320 5800 c-175 -38 -406 -117 -528 -180 l-57 -29 81 -1 c131 0
298 39 458 109 47 21 186 108 186 117 0 8 -58 2 -140 -16z"/>
<path d="M17660 4765 c20 -24 147 -101 233 -140 163 -75 389 -136 557 -149 66
-5 73 -4 56 9 -58 45 -458 192 -705 261 -142 39 -159 41 -141 19z"/>
<path d="M22505 4749 c-228 -61 -522 -167 -660 -237 l-80 -41 75 5 c247 18
568 127 753 257 31 22 57 41 57 43 0 9 -41 1 -145 -27z"/>
<path d="M12764 3865 c21 -50 92 -169 122 -205 100 -118 193 -60 244 152 11
45 18 83 17 85 -2 1 -32 -7 -67 -19 -92 -30 -218 -31 -282 -1 l-48 22 14 -34z"/>
</g>
</svg>
